<?xml version="1.0" encoding="UTF-8" standalone="no"?>
<!-- Created with Inkscape (http://www.inkscape.org/) -->

<svg
   width="210mm"
   height="297mm"
   viewBox="0 0 210 297"
   version="1.1"
   id="svg1"
   inkscape:version="1.3.2 (091e20e, 2023-11-25, custom)"
   sodipodi:docname="connexion.svg"
   xmlns:inkscape="http://www.inkscape.org/namespaces/inkscape"
   xmlns:sodipodi="http://sodipodi.sourceforge.net/DTD/sodipodi-0.dtd"
   xmlns="http://www.w3.org/2000/svg"
   xmlns:svg="http://www.w3.org/2000/svg">
  <sodipodi:namedview
     id="namedview1"
     pagecolor="#ffffff"
     bordercolor="#000000"
     borderopacity="0.25"
     inkscape:showpageshadow="2"
     inkscape:pageopacity="0.0"
     inkscape:pagecheckerboard="0"
     inkscape:deskcolor="#d1d1d1"
     inkscape:document-units="mm"
     inkscape:zoom="2.7419121"
     inkscape:cx="440.56847"
     inkscape:cy="557.09299"
     inkscape:window-width="1920"
     inkscape:window-height="991"
     inkscape:window-x="-9"
     inkscape:window-y="-9"
     inkscape:window-maximized="1"
     inkscape:current-layer="layer1" />
  <defs
     id="defs1">
    <rect
       x="175.35242"
       y="587.57434"
       width="622.06989"
       height="330.00751"
       id="rect5" />
  </defs>
  <g
     inkscape:label="Layer 1"
     inkscape:groupmode="layer"
     id="layer1">
    <g
       id="g8"
       inkscape:export-filename="connexion.png"
       inkscape:export-xdpi="96"
       inkscape:export-ydpi="96">
      <rect
         style="fill:#ffffff;fill-opacity:0.968085;stroke:#000000;stroke-width:0.268441;stroke-dasharray:none;stroke-opacity:1"
         id="rect1"
         width="84.873596"
         height="48.515686"
         x="73.5718"
         y="117.48495" />
      <path
         style="fill:#d30000;fill-opacity:1;stroke:none;stroke-width:0.059008;stroke-dasharray:none;stroke-opacity:1"
         id="path1"
         sodipodi:type="arc"
         sodipodi:cx="154.30649"
         sodipodi:cy="120.36777"
         sodipodi:rx="0.93703139"
         sodipodi:ry="0.93703139"
         sodipodi:start="0"
         sodipodi:end="4.5005906"
         sodipodi:arc-type="arc"
         d="m 155.24352,120.36777 a 0.93703139,0.93703139 0 0 1 -0.87093,0.93469 0.93703139,0.93703139 0 0 1 -0.99381,-0.80282 0.93703139,0.93703139 0 0 1 0.73073,-1.04797"
         sodipodi:open="true" />
      <path
         style="fill:#0090d3;fill-opacity:1;stroke:none;stroke-width:0.059;stroke-dasharray:none;stroke-opacity:1"
         id="path1-4"
         sodipodi:type="arc"
         sodipodi:cx="151.73302"
         sodipodi:cy="120.35394"
         sodipodi:rx="0.93703139"
         sodipodi:ry="0.93703139"
         sodipodi:start="0"
         sodipodi:end="4.5005906"
         sodipodi:arc-type="arc"
         d="m 152.67005,120.35394 a 0.93703139,0.93703139 0 0 1 -0.87093,0.9347 0.93703139,0.93703139 0 0 1 -0.99381,-0.80283 0.93703139,0.93703139 0 0 1 0.73073,-1.04796"
         sodipodi:open="true" />
      <path
         style="fill:#5ed300;fill-opacity:1;stroke:none;stroke-width:0.059;stroke-dasharray:none;stroke-opacity:1"
         id="path1-4-7"
         sodipodi:type="arc"
         sodipodi:cx="149.10312"
         sodipodi:cy="120.33946"
         sodipodi:rx="0.93703139"
         sodipodi:ry="0.93703139"
         sodipodi:start="0"
         sodipodi:end="4.5005906"
         sodipodi:arc-type="arc"
         d="m 150.04015,120.33946 a 0.93703139,0.93703139 0 0 1 -0.87093,0.9347 0.93703139,0.93703139 0 0 1 -0.99381,-0.80283 0.93703139,0.93703139 0 0 1 0.73073,-1.04796"
         sodipodi:open="true" />
      <g
         id="g2"
         transform="matrix(0.22331889,0,0,0.22331889,77.279797,110.56377)">
        <path
           style="fill:none;stroke:#000000;stroke-width:0.825684;stroke-dasharray:none;stroke-opacity:1"
           id="path1-1"
           sodipodi:type="arc"
           sodipodi:cx="132.2551"
           sodipodi:cy="112.23197"
           sodipodi:rx="29.912325"
           sodipodi:ry="29.912325"
           sodipodi:start="4.5076182"
           sodipodi:end="4.506488"
           sodipodi:arc-type="arc"
           d="m 126.17264,82.944586 a 29.912325,29.912325 0 0 1 35.36812,23.196654 29.912325,29.912325 0 0 1 -23.18666,35.37468 29.912325,29.912325 0 0 1 -35.38122,-23.17667 29.912325,29.912325 0 0 1 23.16667,-35.38777"
           sodipodi:open="true"
           inkscape:export-filename="neobrain_icon.png"
           inkscape:export-xdpi="96"
           inkscape:export-ydpi="96" />
        <path
           style="fill:#000000;fill-opacity:1;stroke:#000000;stroke-width:0.545521;stroke-dasharray:none;stroke-opacity:1"
           id="path2"
           sodipodi:type="arc"
           sodipodi:cx="117.15149"
           sodipodi:cy="100.14226"
           sodipodi:rx="1.8992718"
           sodipodi:ry="1.899272"
           sodipodi:start="4.5076182"
           sodipodi:end="4.506488"
           sodipodi:open="true"
           sodipodi:arc-type="arc"
           d="m 116.76529,98.282666 a 1.8992718,1.899272 0 0 1 2.24568,1.472863 1.8992718,1.899272 0 0 1 -1.47223,2.246101 1.8992718,1.899272 0 0 1 -2.24651,-1.47159 1.8992718,1.899272 0 0 1 1.47095,-2.246936" />
        <path
           style="fill:#000000;fill-opacity:1;stroke:#000000;stroke-width:0.690389;stroke-dasharray:none;stroke-opacity:1"
           id="path2-3"
           sodipodi:type="arc"
           sodipodi:cx="144.0372"
           sodipodi:cy="97.427353"
           sodipodi:rx="2.5132987"
           sodipodi:ry="2.2987704"
           sodipodi:start="4.5076182"
           sodipodi:end="4.506488"
           sodipodi:open="true"
           sodipodi:arc-type="arc"
           d="m 143.52614,95.176609 a 2.5132987,2.2987704 0 0 1 2.97171,1.78267 2.5132987,2.2987704 0 0 1 -1.9482,2.718553 2.5132987,2.2987704 0 0 1 -2.9728,-1.781133 2.5132987,2.2987704 0 0 1 1.94651,-2.71956" />
        <path
           style="fill:#000000;fill-opacity:1;stroke:#000000;stroke-width:0.52397;stroke-dasharray:none;stroke-opacity:1"
           id="path2-8"
           sodipodi:type="arc"
           sodipodi:cx="131.96249"
           sodipodi:cy="93.570511"
           sodipodi:rx="1.8242406"
           sodipodi:ry="1.8242404"
           sodipodi:start="4.5076182"
           sodipodi:end="4.506488"
           sodipodi:open="true"
           sodipodi:arc-type="arc"
           d="m 131.59155,91.784383 a 1.8242406,1.8242404 0 0 1 2.15697,1.414677 1.8242406,1.8242404 0 0 1 -1.41407,2.157369 1.8242406,1.8242404 0 0 1 -2.15777,-1.413458 1.8242406,1.8242404 0 0 1 1.41285,-2.158167" />
        <path
           style="fill:#000000;fill-opacity:1;stroke:#000000;stroke-width:0.631725;stroke-dasharray:none;stroke-opacity:1"
           id="path2-0"
           sodipodi:type="arc"
           sodipodi:cx="131.44763"
           sodipodi:cy="129.09644"
           sodipodi:rx="2.1993976"
           sodipodi:ry="2.1993976"
           sodipodi:start="4.5076182"
           sodipodi:end="4.506488"
           sodipodi:open="true"
           sodipodi:arc-type="arc"
           d="m 131.0004,126.94299 a 2.1993976,2.1993976 0 0 1 2.60055,1.70561 2.1993976,2.1993976 0 0 1 -1.70487,2.60103 2.1993976,2.1993976 0 0 1 -2.60152,-1.70414 2.1993976,2.1993976 0 0 1 1.70341,-2.60199" />
        <path
           style="fill:#000000;fill-opacity:1;stroke:#000000;stroke-width:0.631725;stroke-dasharray:none;stroke-opacity:1"
           id="path2-0-5"
           sodipodi:type="arc"
           sodipodi:cx="132.01721"
           sodipodi:cy="109.78538"
           sodipodi:rx="2.1993976"
           sodipodi:ry="2.1993976"
           sodipodi:start="4.5076182"
           sodipodi:end="4.506488"
           sodipodi:open="true"
           sodipodi:arc-type="arc"
           d="m 131.56998,107.63193 a 2.1993976,2.1993976 0 0 1 2.60055,1.70561 2.1993976,2.1993976 0 0 1 -1.70487,2.60103 2.1993976,2.1993976 0 0 1 -2.60152,-1.70414 2.1993976,2.1993976 0 0 1 1.70341,-2.60199" />
        <path
           style="fill:#000000;fill-opacity:1;stroke:#000000;stroke-width:0.631725;stroke-dasharray:none;stroke-opacity:1"
           id="path2-0-5-5"
           sodipodi:type="arc"
           sodipodi:cx="147.23692"
           sodipodi:cy="128.43355"
           sodipodi:rx="2.1993976"
           sodipodi:ry="2.1993976"
           sodipodi:start="4.5076182"
           sodipodi:end="4.506488"
           sodipodi:open="true"
           sodipodi:arc-type="arc"
           d="m 146.78969,126.2801 a 2.1993976,2.1993976 0 0 1 2.60055,1.70561 2.1993976,2.1993976 0 0 1 -1.70487,2.60103 2.1993976,2.1993976 0 0 1 -2.60151,-1.70414 2.1993976,2.1993976 0 0 1 1.7034,-2.60199" />
        <path
           style="fill:#000000;fill-opacity:1;stroke:#000000;stroke-width:0.631725;stroke-dasharray:none;stroke-opacity:1"
           id="path2-0-5-9"
           sodipodi:type="arc"
           sodipodi:cx="151.64258"
           sodipodi:cy="112.51537"
           sodipodi:rx="2.1993976"
           sodipodi:ry="2.1993976"
           sodipodi:start="4.5076182"
           sodipodi:end="4.506488"
           sodipodi:open="true"
           sodipodi:arc-type="arc"
           d="m 151.19535,110.36193 a 2.1993976,2.1993976 0 0 1 2.60055,1.7056 2.1993976,2.1993976 0 0 1 -1.70487,2.60104 2.1993976,2.1993976 0 0 1 -2.60152,-1.70414 2.1993976,2.1993976 0 0 1 1.7034,-2.602" />
        <path
           style="fill:#000000;fill-opacity:1;stroke:#000000;stroke-width:0.825684;stroke-dasharray:none;stroke-opacity:1"
           id="path2-04"
           sodipodi:type="arc"
           sodipodi:cx="118.2327"
           sodipodi:cy="128.75317"
           sodipodi:rx="2.8746805"
           sodipodi:ry="2.8746805"
           sodipodi:start="4.5076182"
           sodipodi:end="4.506488"
           sodipodi:open="true"
           sodipodi:arc-type="arc"
           d="m 117.64815,125.93855 a 2.8746805,2.8746805 0 0 1 3.399,2.22928 2.8746805,2.8746805 0 0 1 -2.22832,3.39963 2.8746805,2.8746805 0 0 1 -3.40026,-2.22736 2.8746805,2.8746805 0 0 1 2.2264,-3.40089" />
        <path
           style="fill:#000000;fill-opacity:1;stroke:#000000;stroke-width:0.6425;stroke-dasharray:none;stroke-opacity:1"
           id="path2-36"
           sodipodi:type="arc"
           sodipodi:cx="120.84993"
           sodipodi:cy="114.63718"
           sodipodi:rx="2.2369134"
           sodipodi:ry="2.2369132"
           sodipodi:start="4.5076182"
           sodipodi:end="4.506488"
           sodipodi:open="true"
           sodipodi:arc-type="arc"
           d="m 120.39507,112.447 a 2.2369134,2.2369132 0 0 1 2.64491,1.7347 2.2369134,2.2369132 0 0 1 -1.73395,2.6454 2.2369134,2.2369132 0 0 1 -2.64589,-1.73321 2.2369134,2.2369132 0 0 1 1.73245,-2.64638" />
        <path
           style="fill:#000000;fill-opacity:1;stroke:#000000;stroke-width:0.483189;stroke-dasharray:none;stroke-opacity:1"
           id="path2-36-0"
           sodipodi:type="arc"
           sodipodi:cx="111.41473"
           sodipodi:cy="114.46704"
           sodipodi:rx="1.702841"
           sodipodi:ry="1.6619239"
           sodipodi:start="4.5076182"
           sodipodi:end="4.506488"
           sodipodi:open="true"
           sodipodi:arc-type="arc"
           d="m 111.06847,112.83984 a 1.702841,1.6619239 0 0 1 2.01342,1.2888 1.702841,1.6619239 0 0 1 -1.31996,1.96541 1.702841,1.6619239 0 0 1 -2.01417,-1.28769 1.702841,1.6619239 0 0 1 1.31882,-1.96614" />
        <rect
           style="fill:#000000;fill-opacity:1;stroke:#000000;stroke-width:0.387759;stroke-dasharray:none;stroke-opacity:1"
           id="rect2"
           width="16.396114"
           height="0.040807646"
           x="152.44582"
           y="53.658802"
           transform="matrix(0.96113926,0.27606398,-0.2987735,0.95432405,0,0)" />
        <rect
           style="fill:#000000;fill-opacity:1;stroke:#000000;stroke-width:0.387759;stroke-dasharray:none;stroke-opacity:1"
           id="rect2-4"
           width="16.396114"
           height="0.040807646"
           x="154.02232"
           y="14.363228"
           transform="matrix(0.81820798,0.57492235,-0.59415919,0.80434747,0,0)"
           inkscape:transform-center-x="-7.0430603"
           inkscape:transform-center-y="4.7470254" />
        <rect
           style="fill:#000000;fill-opacity:1;stroke:#000000;stroke-width:0.387759;stroke-dasharray:none;stroke-opacity:1"
           id="rect2-4-0"
           width="16.396114"
           height="0.040807646"
           x="70.76403"
           y="138.11354"
           transform="matrix(0.91700819,-0.39886836,0.37701545,0.92620697,0,0)"
           inkscape:transform-center-x="-7.7212173"
           inkscape:transform-center-y="-3.5385866" />
        <rect
           style="fill:#000000;fill-opacity:1;stroke:#000000;stroke-width:0.387759;stroke-dasharray:none;stroke-opacity:1"
           id="rect2-4-0-3"
           width="16.396114"
           height="0.040807646"
           x="-136.83801"
           y="91.461517"
           transform="matrix(-0.22761157,-0.97375201,0.97887462,-0.20446144,0,0)"
           inkscape:transform-center-x="2.093672"
           inkscape:transform-center-y="-8.2313795" />
        <rect
           style="fill:#000000;fill-opacity:1;stroke:#000000;stroke-width:0.387759;stroke-dasharray:none;stroke-opacity:1"
           id="rect2-4-0-3-2"
           width="16.396114"
           height="0.040807646"
           x="-165.96913"
           y="52.628941"
           transform="matrix(-0.42255061,-0.90633933,0.91610259,-0.40094394,0,0)"
           inkscape:transform-center-x="-3.4929419"
           inkscape:transform-center-y="7.4135485" />
        <rect
           style="fill:#000000;fill-opacity:1;stroke:#000000;stroke-width:0.387759;stroke-dasharray:none;stroke-opacity:1"
           id="rect2-4-0-9"
           width="16.396114"
           height="0.040807646"
           x="-83.79496"
           y="174.57288"
           transform="matrix(0.24653841,-0.96913302,0.96301558,0.2694457,0,0)"
           inkscape:transform-center-x="1.9362766"
           inkscape:transform-center-y="7.7470791" />
        <rect
           style="fill:#000000;fill-opacity:1;stroke:#000000;stroke-width:0.387759;stroke-dasharray:none;stroke-opacity:1"
           id="rect2-4-0-35"
           width="16.396114"
           height="0.040807646"
           x="150.2989"
           y="-82.039421"
           transform="matrix(0.46614602,0.8847078,-0.89551071,0.44503996,0,0)"
           inkscape:transform-center-x="-4.104551"
           inkscape:transform-center-y="7.4358032" />
        <rect
           style="fill:#000000;fill-opacity:1;stroke:#000000;stroke-width:0.387759;stroke-dasharray:none;stroke-opacity:1"
           id="rect2-4-0-7"
           width="16.396114"
           height="0.040807646"
           x="-118.76453"
           y="136.58655"
           transform="matrix(0.04235902,-0.99910245,0.99781736,0.06603426,0,0)"
           inkscape:transform-center-x="-0.19469183"
           inkscape:transform-center-y="-8.4912189" />
        <rect
           style="fill:#000000;fill-opacity:1;stroke:#000000;stroke-width:0.387759;stroke-dasharray:none;stroke-opacity:1"
           id="rect2-4-0-1"
           width="16.396114"
           height="0.040807642"
           x="131.0388"
           y="132.20973"
           transform="matrix(0.9997,-0.02449307,7.8487959e-4,0.99999969,0,0)"
           inkscape:transform-center-x="-8.4852553"
           inkscape:transform-center-y="-0.37309606" />
        <rect
           style="fill:#000000;fill-opacity:1;stroke:#000000;stroke-width:0.596411;stroke-dasharray:none;stroke-opacity:1"
           id="rect2-4-0-78"
           width="25.437172"
           height="0.062227331"
           x="18.243881"
           y="181.41132"
           transform="matrix(0.79812513,-0.60249172,0.64240888,0.76636207,0,0)"
           inkscape:transform-center-x="-10.348119"
           inkscape:transform-center-y="-8.1268591" />
        <rect
           style="fill:#000000;fill-opacity:1;stroke:#000000;stroke-width:0.379235;stroke-dasharray:none;stroke-opacity:1"
           id="rect2-4-0-8"
           width="14.359631"
           height="0.044568889"
           x="120.89358"
           y="127.65001"
           transform="matrix(0.99994696,0.01029908,-0.02775125,0.99961486,0,0)"
           inkscape:transform-center-x="-7.4383065"
           inkscape:transform-center-y="-0.10377544" />
        <text
           xml:space="preserve"
           style="font-size:5.15678px;white-space:pre;inline-size:20.5894;display:inline;fill:#000000;fill-opacity:1;stroke:#000000;stroke-width:1;stroke-dasharray:none;stroke-opacity:1"
           x="158.35257"
           y="95.985085"
           id="text2"
           transform="matrix(12.411895,0,0,13.349995,-1952.8466,-1143.4714)"><tspan
             x="158.35257"
             y="95.985085"
             id="tspan9"><tspan
               style="stroke:none"
               id="tspan3">NE</tspan></tspan></text>
        <text
           xml:space="preserve"
           transform="matrix(0.24358995,0,0,0.24358995,-27.404859,1.0504858)"
           id="text5"
           style="font-size:186.667px;white-space:pre;shape-inside:url(#rect5);display:inline;fill:#000000;fill-opacity:1;stroke:none;stroke-width:3.77953;stroke-dasharray:none;stroke-opacity:1"><tspan
             x="175.35156"
             y="757.87619"
             id="tspan10">BRAIN</tspan></text>
      </g>
      <text
         xml:space="preserve"
         style="font-size:4.07467px;font-family:Arial;-inkscape-font-specification:Arial;fill:#000000;fill-opacity:0.968085;stroke:none;stroke-width:0.827768;stroke-dasharray:none;stroke-opacity:1"
         x="122.97599"
         y="133.19757"
         id="text1"><tspan
           sodipodi:role="line"
           id="tspan1"
           style="fill:#000000;fill-opacity:0.968085;stroke:none;stroke-width:0.827767"
           x="122.97599"
           y="133.19757">Se connecter</tspan></text>
      <rect
         style="fill:none;fill-opacity:0.968085;stroke:#000000;stroke-width:0.430001;stroke-dasharray:none;stroke-opacity:1"
         id="rect3"
         width="29.169394"
         height="3.8254943"
         x="120.8617"
         y="136.88097" />
      <rect
         style="fill:none;fill-opacity:0.968085;stroke:#000000;stroke-width:0.430001;stroke-dasharray:none;stroke-opacity:1"
         id="rect3-0"
         width="29.169394"
         height="3.8254943"
         x="120.9565"
         y="143.65611" />
      <rect
         style="fill:#119ffb;fill-opacity:0.96808499;stroke:#000000;stroke-width:0.430001;stroke-dasharray:none;stroke-opacity:1"
         id="rect4"
         width="29.28894"
         height="5.4991479"
         x="120.74216"
         y="151.46567" />
      <text
         xml:space="preserve"
         style="font-size:3.28895px;font-family:Arial;-inkscape-font-specification:Arial;fill:#000000;fill-opacity:0.968085;stroke:none;stroke-width:0.668149;stroke-dasharray:none;stroke-opacity:1"
         x="125.5531"
         y="155.41505"
         id="text4"><tspan
           sodipodi:role="line"
           id="tspan4"
           style="fill:#000000;fill-opacity:0.968085;stroke:none;stroke-width:0.668147"
           x="125.5531"
           y="155.41505">Se connecter</tspan></text>
      <text
         xml:space="preserve"
         style="font-size:2.11667px;font-family:Arial;-inkscape-font-specification:Arial;fill:#000000;fill-opacity:0.40000001;stroke:none;stroke-width:0.430001;stroke-dasharray:none;stroke-opacity:1"
         x="126.45975"
         y="139.31029"
         id="text7"><tspan
           sodipodi:role="line"
           id="tspan7"
           style="stroke-width:0.43;fill:#000000;fill-opacity:0.40000001"
           x="126.45975"
           y="139.31029">Nom de l'utilisateur</tspan></text>
      <text
         xml:space="preserve"
         style="font-size:2.11667px;font-family:Arial;-inkscape-font-specification:Arial;fill:#000000;fill-opacity:0.40000001;stroke:none;stroke-width:0.430001;stroke-dasharray:none;stroke-opacity:1"
         x="128.87251"
         y="145.97159"
         id="text8"><tspan
           sodipodi:role="line"
           id="tspan8"
           style="stroke-width:0.43;fill:#000000;fill-opacity:0.40000001"
           x="128.87251"
           y="145.97159">Mot de passe</tspan></text>
    </g>
  </g>
</svg>
